<svg xmlns="http://www.w3.org/2000/svg" width="78.103" height="52.889" viewBox="0 0 78.103 52.889">
  <g id="Groupe_176" data-name="Groupe 176" transform="translate(-1068.781 -1257.874)">
    <path id="Tracé_228" data-name="Tracé 228" d="M36.41,5.545l-.473,2.564-13.295,4.3a5.286,5.286,0,0,0-3.367,3.166,1.465,1.465,0,1,0,2.736,1.046,2.249,2.249,0,0,1,1.519-1.433l14.126-4.527a1.433,1.433,0,0,0,1-1.132L39.29,6.1c.43-2.35.946-2.65,1.347-2.665l24.355-.487A2.536,2.536,0,0,1,67.47,4.786l8.4,21a.6.6,0,0,1,0,.544,3.266,3.266,0,0,1-1.848,1.433l-.688.229a1.51,1.51,0,0,0-.831,2.092L82.727,48.281a.725.725,0,0,1-.115.759,1.791,1.791,0,0,1-1.433.917H39.992a2.994,2.994,0,0,1-2.321-.86,1.46,1.46,0,1,0-2.493,1.519,5.6,5.6,0,0,0,4.814,2.264h41.26a4.67,4.67,0,0,0,3.882-2.364,3.868,3.868,0,0,0,.53-2.579,3.008,3.008,0,0,0-.387-1.089L75.894,30.086A5.53,5.53,0,0,0,78.5,27.55a3.524,3.524,0,0,0,.086-2.865l-8.424-21A5.387,5.387,0,0,0,64.92,0L40.565.488C37.327.559,36.682,4.184,36.41,5.545ZM29.032,43.052A1.343,1.343,0,0,0,27.6,41.59H23.072a3.324,3.324,0,0,1-2.206-.716.587.587,0,0,1-.2-.5l.258-3.711a1.434,1.434,0,1,0-2.865-.143l-.186,3.7a3.582,3.582,0,0,0,1,2.679,5.988,5.988,0,0,0,4.3,1.619h4.513A1.433,1.433,0,0,0,29.032,43.052Z" transform="translate(1061.179 1257.875)" fill="#2a2e2b"/>
    <path id="Tracé_229" data-name="Tracé 229" d="M14.18,17.843a1.433,1.433,0,0,0,1.433,1.433h.358a1.433,1.433,0,1,0,0-2.865h-.33a1.433,1.433,0,0,0-1.461,1.433Z" transform="translate(1059.584 1264.975)" fill="#2a2e2b"/>
    <path id="Tracé_230" data-name="Tracé 230" d="M17.333,12.73A6.7,6.7,0,0,0,15.9,25.968v4.441a1.468,1.468,0,0,0,2.937,0v-4.4A6.7,6.7,0,0,0,17.4,12.773Zm0,10.487a3.782,3.782,0,1,1,2.7-1.092A3.782,3.782,0,0,1,17.333,23.217Z" transform="translate(1058.079 1263.383)" fill="#2a2e2b"/>
    <path id="Tracé_231" data-name="Tracé 231" d="M45.72,9.223a1.433,1.433,0,0,0,1.433,1.433h.4a1.433,1.433,0,0,0,0-2.865H47.2A1.433,1.433,0,0,0,45.72,9.223Z" transform="translate(1073.229 1261.245)" fill="#2a2e2b"/>
    <path id="Tracé_232" data-name="Tracé 232" d="M48.863,4.11A6.7,6.7,0,0,0,47.43,17.348v4.441a1.433,1.433,0,1,0,2.865,0V17.348A6.7,6.7,0,0,0,48.863,4.11Zm0,10.473a3.768,3.768,0,1,1,2.674-1.1,3.782,3.782,0,0,1-2.674,1.1Z" transform="translate(1071.721 1259.653)" fill="#2a2e2b"/>
    <path id="Tracé_233" data-name="Tracé 233" d="M28.47,24.2A1.433,1.433,0,0,0,29.9,25.635h.344a1.433,1.433,0,1,0,0-2.865H29.9A1.433,1.433,0,0,0,28.47,24.2Z" transform="translate(1065.767 1267.727)" fill="#2a2e2b"/>
    <path id="Tracé_234" data-name="Tracé 234" d="M31.631,19.09A6.7,6.7,0,0,0,30.2,32.342v4.427a1.433,1.433,0,1,0,2.865,0V32.342A6.7,6.7,0,0,0,31.631,19.09Zm0,10.487A3.782,3.782,0,1,1,35.4,25.795a3.782,3.782,0,0,1-3.768,3.782Z" transform="translate(1064.238 1266.135)" fill="#2a2e2b"/>
  </g>
</svg>
