<svg xmlns="http://www.w3.org/2000/svg" viewBox="0 0 42.66 41.81"><defs><style>.cls-1{fill:#2a2e2b;}</style></defs><g id="Calque_2" data-name="Calque 2"><g id="Calque_1-2" data-name="Calque 1"><path class="cls-1" d="M42.24.43A1.48,1.48,0,0,0,41.1,0L34.44.49a1.45,1.45,0,1,0,.22,2.89l2.76-.2-9.74,9.76L16.34,3.34a1.45,1.45,0,0,0-2,.08l-14,14a1.47,1.47,0,0,0,0,2.06,1.47,1.47,0,0,0,2.06,0l13-13L26.82,16a1.45,1.45,0,0,0,2-.08L39.44,5.27l-.22,2.66A1.45,1.45,0,0,0,40.54,9.5h.12a1.46,1.46,0,0,0,1.45-1.33l.54-6.6A1.42,1.42,0,0,0,42.24.43Z"/><path class="cls-1" d="M37.06,17.06a1.46,1.46,0,0,0-1.58.31l-6,6a1.5,1.5,0,0,0-.43,1V40.36a1.45,1.45,0,0,0,1.45,1.45h6A1.45,1.45,0,0,0,38,40.36v-22A1.45,1.45,0,0,0,37.06,17.06Z"/><path class="cls-1" d="M19.44,17.37a1.46,1.46,0,0,0-1.58-.31A1.44,1.44,0,0,0,17,18.4v22a1.45,1.45,0,0,0,1.45,1.45h6a1.45,1.45,0,0,0,1.45-1.45V24.43a1.5,1.5,0,0,0-.43-1Z"/><path class="cls-1" d="M13.84,18.4a1.45,1.45,0,0,0-.9-1.34,1.47,1.47,0,0,0-1.58.31l-6,6a1.49,1.49,0,0,0-.42,1V40.36h0a1.45,1.45,0,0,0,1.45,1.45h6a1.45,1.45,0,0,0,1.45-1.43h0Z"/></g></g></svg>