<svg id="Calque_2" data-name="Calque 2" xmlns="http://www.w3.org/2000/svg" width="167.942" height="89.942" viewBox="0 0 167.942 89.942">
  <g id="Calque_1" data-name="Calque 1" transform="translate(0 0)">
    <path id="Tracé_25" data-name="Tracé 25" d="M11.435,28.42A11.92,11.92,0,0,0,12.681,17.5,15.988,15.988,0,0,0,5.031,8.75S1.02,14.194,3.255,20.383a13.839,13.839,0,0,0,8.18,8.037Z" transform="translate(1.118 3.714)" fill="#2a2e2b"/>
    <path id="Tracé_26" data-name="Tracé 26" d="M15.865,30.1a13.8,13.8,0,0,0,9.756-6.031c3.553-5.544.831-11.733.831-11.733a16.017,16.017,0,0,0-9.4,6.848A11.891,11.891,0,0,0,15.865,30.1Z" transform="translate(6.516 5.267)" fill="#2a2e2b"/>
    <path id="Tracé_27" data-name="Tracé 27" d="M16.428,32.269a11.891,11.891,0,0,0,.258,10.988,13.811,13.811,0,0,0,8.868-7.249c2.794-5.96-.7-11.748-.7-11.748A16.046,16.046,0,0,0,16.428,32.269Z" transform="translate(6.583 10.424)" fill="#2a2e2b"/>
    <path id="Tracé_28" data-name="Tracé 28" d="M28.38,33.29a16.06,16.06,0,0,0-7.636,8.768,11.891,11.891,0,0,0,1.289,10.917,13.868,13.868,0,0,0,8.152-8.066C32.406,38.72,28.38,33.29,28.38,33.29Z" transform="translate(8.643 14.331)" fill="#2a2e2b"/>
    <path id="Tracé_29" data-name="Tracé 29" d="M30.324,62.844a13.839,13.839,0,0,0,5.5-10.029C36.169,46.24,30.739,42.2,30.739,42.2a16,16,0,0,0-4.771,10.6,11.877,11.877,0,0,0,4.355,10.043Z" transform="translate(11.226 18.186)" fill="#2a2e2b"/>
    <path id="Tracé_30" data-name="Tracé 30" d="M15.057,19.932a11.877,11.877,0,0,0,7.092-8.381A16,16,0,0,0,20.716.09S14.37,2.4,12.794,8.786A13.839,13.839,0,0,0,15.057,19.932Z" transform="translate(5.39 -0.033)" fill="#2a2e2b"/>
    <path id="Tracé_31" data-name="Tracé 31" d="M12.537,37.305a11.891,11.891,0,0,0-2.02-10.8,16,16,0,0,0-9.9-6.1S-1.6,26.79,2.365,32.033a13.753,13.753,0,0,0,10.172,5.272Z" transform="translate(0.002 8.754)" fill="#2a2e2b"/>
    <path id="Tracé_32" data-name="Tracé 32" d="M16.588,46.341A11.92,11.92,0,0,0,12.2,36.312a16.017,16.017,0,0,0-11-3.768S.457,39.278,5.5,43.5a13.825,13.825,0,0,0,11.089,2.837Z" transform="translate(0.506 14.003)" fill="#2a2e2b"/>
    <path id="Tracé_33" data-name="Tracé 33" d="M22.432,53.277a11.891,11.891,0,0,0-7.163-8.266A15.96,15.96,0,0,0,3.65,44.753s1.318,6.633,7.392,9.155a13.825,13.825,0,0,0,11.39-.63Z" transform="translate(1.582 18.871)" fill="#2a2e2b"/>
    <path id="Tracé_34" data-name="Tracé 34" d="M22.366,54.02A16.046,16.046,0,0,0,10.79,55.152s2.106,6.433,8.438,8.209a13.839,13.839,0,0,0,11.289-1.948,11.834,11.834,0,0,0-8.152-7.392Z" transform="translate(4.672 23.042)" fill="#2a2e2b"/>
    <path id="Tracé_35" data-name="Tracé 35" d="M16.429,17.1,13.564,15.67c-.158.315-15.014,31.876,26.748,67.564L42.388,80.8C2.6,46.816,15.841,18.292,16.429,17.1Z" transform="translate(4.706 6.708)" fill="#2a2e2b"/>
    <path id="Tracé_36" data-name="Tracé 36" d="M109.074,28.366a11.877,11.877,0,0,1-1.246-10.9,15.988,15.988,0,0,1,7.65-8.753s4.011,5.444,1.762,11.619a13.739,13.739,0,0,1-8.166,8.037Z" transform="translate(46.314 3.697)" fill="#2a2e2b"/>
    <path id="Tracé_37" data-name="Tracé 37" d="M105.1,30.065a13.854,13.854,0,0,1-9.756-6.031c-3.553-5.544-.831-11.733-.831-11.733a16.017,16.017,0,0,1,9.4,6.848A11.891,11.891,0,0,1,105.1,30.065Z" transform="translate(40.462 5.25)" fill="#2a2e2b"/>
    <path id="Tracé_38" data-name="Tracé 38" d="M104.244,32.233a11.862,11.862,0,0,1-.258,10.974A13.854,13.854,0,0,1,95.1,35.958c-2.779-5.96.716-11.748.716-11.748A16.06,16.06,0,0,1,104.244,32.233Z" transform="translate(40.686 10.403)" fill="#2a2e2b"/>
    <path id="Tracé_39" data-name="Tracé 39" d="M92.127,33.25a16.06,16.06,0,0,1,7.636,8.768,11.891,11.891,0,0,1-1.289,10.917,13.868,13.868,0,0,1-8.152-8.066C88.1,38.622,92.127,33.25,92.127,33.25Z" transform="translate(38.792 14.314)" fill="#2a2e2b"/>
    <path id="Tracé_40" data-name="Tracé 40" d="M89.922,62.817a13.811,13.811,0,0,1-5.487-10.029c-.344-6.547,5.115-10.659,5.115-10.659a16.074,16.074,0,0,1,4.771,10.6A11.877,11.877,0,0,1,89.922,62.817Z" transform="translate(36.527 18.156)" fill="#2a2e2b"/>
    <path id="Tracé_41" data-name="Tracé 41" d="M105.221,19.892a11.877,11.877,0,0,1-7.077-8.381A16,16,0,0,1,99.577.05s6.347,2.307,7.923,8.7a13.811,13.811,0,0,1-2.278,11.146Z" transform="translate(42.259 -0.05)" fill="#2a2e2b"/>
    <path id="Tracé_42" data-name="Tracé 42" d="M108.624,37.265a11.934,11.934,0,0,1,2.02-10.8,16,16,0,0,1,9.9-6.1s2.221,6.375-1.748,11.633a13.753,13.753,0,0,1-10.172,5.272Z" transform="translate(46.778 8.737)" fill="#2a2e2b"/>
    <path id="Tracé_43" data-name="Tracé 43" d="M105.3,46.312a11.948,11.948,0,0,1,4.384-10.029,16.046,16.046,0,0,1,10.96-3.811s.745,6.719-4.3,10.96a13.882,13.882,0,0,1-11.046,2.88Z" transform="translate(45.55 13.973)" fill="#2a2e2b"/>
    <path id="Tracé_44" data-name="Tracé 44" d="M100.46,53.24a11.905,11.905,0,0,1,7.163-8.281,16.046,16.046,0,0,1,11.619-.258s-1.318,6.633-7.392,9.155a13.8,13.8,0,0,1-11.39-.616Z" transform="translate(43.467 18.851)" fill="#2a2e2b"/>
    <path id="Tracé_45" data-name="Tracé 45" d="M100.812,53.98a16.06,16.06,0,0,1,11.576,1.132s-2.106,6.418-8.438,8.209A13.839,13.839,0,0,1,92.66,61.329,11.877,11.877,0,0,1,100.812,53.98Z" transform="translate(40.093 23.025)" fill="#2a2e2b"/>
    <path id="Tracé_46" data-name="Tracé 46" d="M110.314,17.063l2.865-1.433c.143.315,15,31.891-26.748,67.578l-2.092-2.45C124.125,46.776,110.9,18.252,110.314,17.063Z" transform="translate(36.493 6.691)" fill="#2a2e2b"/>
  </g>
</svg>
