<svg xmlns="http://www.w3.org/2000/svg" viewBox="0 0 88.26 40.51"><defs><style>.cls-1{fill:none;}.cls-2{fill:#2a2e2b;}</style></defs><g id="Calque_2" data-name="Calque 2"><g id="Calque_1-2" data-name="Calque 1"><path class="cls-1" d="M75.84,15.41a4.07,4.07,0,0,0-.06-.61.2.2,0,0,0,0-.07A3.82,3.82,0,0,1,75.84,15.41Z"/><path class="cls-1" d="M73.07,11.41h0l-.11,0a2.26,2.26,0,0,0-.37-.11A3.79,3.79,0,0,1,73.07,11.41Z"/><path class="cls-1" d="M75.78,16.05v0a4.07,4.07,0,0,0,.06-.61A4.48,4.48,0,0,1,75.78,16.05Z"/><path class="cls-2" d="M48.92,15.41a4.28,4.28,0,0,0,4.28,4.28h0a3.77,3.77,0,0,0,.76-.08,3.84,3.84,0,0,0,1.6-.63,4.81,4.81,0,0,0,.66-.55h0a4.27,4.27,0,0,0,0-6,4.28,4.28,0,0,0-7.3,3Z"/><path class="cls-2" d="M67.28,15.41a4.27,4.27,0,0,0,7.3,3,3.86,3.86,0,0,0,.55-.66,4.07,4.07,0,0,0,.31-.53.56.56,0,0,0,0-.12h0c0-.06,0-.13.08-.2h0a.09.09,0,0,0,0-.05,3.37,3.37,0,0,0,.15-.48h0c0-.07,0-.14,0-.21h0c0-.06,0-.11,0-.16v0a4.48,4.48,0,0,0,.06-.64,3.82,3.82,0,0,0-.07-.68.2.2,0,0,1,0,.07c0-.05,0-.11,0-.16h0a3.06,3.06,0,0,0-.1-.41c0-.11-.06-.22-.1-.33h0c0-.07,0-.14-.08-.2h0a3.73,3.73,0,0,0-.9-1.31,4.28,4.28,0,0,0-.66-.55,4.07,4.07,0,0,0-.53-.31l-.12,0h0l-.2-.08h0a3.79,3.79,0,0,0-.48-.14,2.26,2.26,0,0,1,.37.11,3.38,3.38,0,0,0-.42-.13h0l-.21-.05h0a4.9,4.9,0,0,0-.77-.07h0a4.3,4.3,0,0,0-4.28,4.28Z"/><path class="cls-2" d="M73.07,11.41l-.11,0,.11,0Z"/><path class="cls-2" d="M47,24a4.28,4.28,0,1,0-3,7.3,4.1,4.1,0,0,0,2.36-.71,4.73,4.73,0,0,0,.66-.54,3.36,3.36,0,0,0,.24-.29h0a3.36,3.36,0,0,1-.24.29,4.29,4.29,0,0,0,0-6Z"/><path class="cls-2" d="M28.68,24a4.28,4.28,0,1,0-3,7.3A4.1,4.1,0,0,0,28,30.6a4.73,4.73,0,0,0,.66-.54,3.36,3.36,0,0,0,.24-.29h0a3.36,3.36,0,0,1-.24.29,4.29,4.29,0,0,0,0-6Z"/><path class="cls-2" d="M62.38,31.31a4.27,4.27,0,0,0,3-7.3,4.28,4.28,0,1,0-3,7.3Z"/><path class="cls-2" d="M76.46,27a4.28,4.28,0,1,0,1.26-3A4.13,4.13,0,0,0,76.46,27Z"/><path class="cls-2" d="M75.78,16a4.07,4.07,0,0,0,.06-.61,4.07,4.07,0,0,0-.06-.61,4.07,4.07,0,0,1,.06.61A4.07,4.07,0,0,1,75.78,16Z"/><path class="cls-2" d="M72.41,19.61a4.71,4.71,0,0,1-.85.08h0A4.71,4.71,0,0,0,72.41,19.61Z"/><polygon class="cls-2" points="53.2 11.13 53.2 11.13 53.2 11.13 53.2 11.13"/><polygon class="cls-2" points="62.38 22.76 62.38 22.76 62.38 22.76 62.38 22.76"/><path class="cls-2" d="M22.52,7.3a4.81,4.81,0,0,0,.66.55,4.55,4.55,0,0,0,.65.35l.21.08.52.16.22,0a4.77,4.77,0,0,0,.76.07h0a4,4,0,0,0,.86-.08,4.45,4.45,0,0,0,.79-.23,4.29,4.29,0,0,0,1.38-.94,4.11,4.11,0,0,0,.54-.66,3.6,3.6,0,0,0,.31-.54,1.17,1.17,0,0,0,0-.11c0-.07.05-.14.08-.2h0a4.61,4.61,0,0,0,.15-.53h0A1.42,1.42,0,0,0,29.75,5h0a.76.76,0,0,0,0-.15,4.07,4.07,0,0,0,.06-.61,4.07,4.07,0,0,0-.06-.61.86.86,0,0,0,0-.16h0a2.25,2.25,0,0,0-.05-.22,4.44,4.44,0,0,0-.15-.52l-.08-.21a3.8,3.8,0,0,0-.36-.65,4.29,4.29,0,0,0-1.2-1.2A3.6,3.6,0,0,0,27.37.4L27.26.35,27.05.28h0l-.1,0c-.14,0-.28-.09-.42-.12l-.22,0A4.79,4.79,0,0,0,25.54,0h0a4.8,4.8,0,0,0-.85.08A4.44,4.44,0,0,0,24,.29l-.2.09c-.16.08-.32.16-.48.26l-.19.12a6.66,6.66,0,0,0-.59.49,4.81,4.81,0,0,0-.55.66,4,4,0,0,0-.62,1.52,3.89,3.89,0,0,0-.08.85,4.27,4.27,0,0,0,.31,1.64A4.29,4.29,0,0,0,22.52,7.3Z"/><path class="cls-2" d="M42.26,8.24a4.29,4.29,0,0,0,1.65.31,4,4,0,0,0,.85-.08,3.61,3.61,0,0,0,.71-.21h0l.17-.08a1.36,1.36,0,0,0,.25-.11c.08,0,.15-.1.23-.15a2,2,0,0,0,.19-.12,4.38,4.38,0,0,0,.59-.49,4.14,4.14,0,0,0,1.25-3,4.14,4.14,0,0,0-1.25-3,4.29,4.29,0,0,0-6,0,4.81,4.81,0,0,0-.55.66,4.63,4.63,0,0,0-.39.73,4.2,4.2,0,0,0-.31,1.64,4.14,4.14,0,0,0,1.25,3A4.29,4.29,0,0,0,42.26,8.24Z"/><path class="cls-2" d="M58.7,6.64a4.11,4.11,0,0,0,.54.66,4.81,4.81,0,0,0,.66.55,4.55,4.55,0,0,0,.65.35l.21.08.52.16.22,0a4.79,4.79,0,0,0,.77.07,4.14,4.14,0,0,0,3-1.25,4.14,4.14,0,0,0,1.25-3,4.2,4.2,0,0,0-.31-1.64,4.63,4.63,0,0,0-.39-.73,4.81,4.81,0,0,0-.55-.66,4.11,4.11,0,0,0-.66-.54A4.63,4.63,0,0,0,64,.35l-.2-.07a3.56,3.56,0,0,0-.53-.16L63,.07A4.77,4.77,0,0,0,62.27,0a4.39,4.39,0,0,0-1.64.31,4.38,4.38,0,0,0-1.39.94,4.11,4.11,0,0,0-.54.66,4,4,0,0,0-.4.73A4.2,4.2,0,0,0,58,4.28a4.8,4.8,0,0,0,.08.85A3.8,3.8,0,0,0,58.7,6.64Z"/><path class="cls-2" d="M21.67,15.41a5.07,5.07,0,0,1-.56,2.33l.27,0h8.55l.27,0a5.2,5.2,0,0,1-.56-2.33,5,5,0,0,1,1.52-3.67,5.46,5.46,0,0,1,1.23-.9,3.78,3.78,0,0,0-.25-.49,3.79,3.79,0,0,0-.7-.91,3,3,0,0,0-1-.63,2.51,2.51,0,0,0-.61-.17,3.71,3.71,0,0,0-.67-.06.83.83,0,0,0-.29.06,3.16,3.16,0,0,0-.41.23l-.72.47a3.81,3.81,0,0,1-.94.41,3.78,3.78,0,0,1-1.14.19,3.85,3.85,0,0,1-1.15-.19,5.36,5.36,0,0,1-.53-.2l-.41-.21-.72-.47a1.28,1.28,0,0,0-.7-.29,3.55,3.55,0,0,0-1.28.23,3,3,0,0,0-1,.63,3.79,3.79,0,0,0-.7.91c-.09.16-.17.33-.25.49a5.24,5.24,0,0,1,1.23.9A5,5,0,0,1,21.67,15.41Z"/><path class="cls-2" d="M16.48,19.69a4.8,4.8,0,0,0,.85-.08,4.48,4.48,0,0,0,.71-.22h0l.17-.07c.08,0,.17-.07.25-.12s.15-.1.23-.15l.19-.11a5.4,5.4,0,0,0,.59-.5,4.27,4.27,0,0,0,0-6,4.93,4.93,0,0,0-.87-.67,4.18,4.18,0,0,0-2.15-.59,4.12,4.12,0,0,0-3,1.26,3.66,3.66,0,0,0-.54.65,4.33,4.33,0,0,0-.4.73,4.2,4.2,0,0,0-.31,1.64,4.28,4.28,0,0,0,4.28,4.28Z"/><path class="cls-2" d="M40,15.41a5.07,5.07,0,0,1-.56,2.33l.27,0h8.55l.28,0A5.08,5.08,0,0,1,48,15.41a5,5,0,0,1,1.53-3.67,5.19,5.19,0,0,1,1.22-.9,3.78,3.78,0,0,0-.25-.49,4,4,0,0,0-.69-.91h0a3.14,3.14,0,0,0-1-.63,3.55,3.55,0,0,0-1.28-.23l-.19,0,0,0a1.07,1.07,0,0,0-.23.1l-.23.14-.72.47a3.81,3.81,0,0,1-.94.41A3.78,3.78,0,0,1,44,9.94a3.85,3.85,0,0,1-1.15-.19,5.36,5.36,0,0,1-.53-.2l-.41-.21-.72-.47a3.16,3.16,0,0,0-.41-.23.79.79,0,0,0-.29-.06,3.55,3.55,0,0,0-1.28.23,4.53,4.53,0,0,0-.54.27,3.33,3.33,0,0,0-.46.36,5.14,5.14,0,0,0-.38.42c-.11.15-.22.32-.32.49s-.17.33-.25.49a5.24,5.24,0,0,1,1.23.9A5,5,0,0,1,40,15.41Z"/><path class="cls-2" d="M58.39,15.41a5.07,5.07,0,0,1-.56,2.33h9.1a5.08,5.08,0,0,1-.57-2.33,5,5,0,0,1,1.53-3.67,5.19,5.19,0,0,1,1.22-.9c-.07-.16-.15-.33-.24-.49a5.46,5.46,0,0,0-.31-.47,4.4,4.4,0,0,0-.35-.39l0-.05h0a3.58,3.58,0,0,0-.37-.28A2.6,2.6,0,0,0,67.44,9h0a2.29,2.29,0,0,0-.27-.14,2.51,2.51,0,0,0-.61-.17,3.71,3.71,0,0,0-.67-.06.83.83,0,0,0-.29.06,3.16,3.16,0,0,0-.41.23l-.72.47a3.81,3.81,0,0,1-.94.41,3.78,3.78,0,0,1-1.14.19,3.85,3.85,0,0,1-1.15-.19,3.72,3.72,0,0,1-.93-.41l-.73-.47h0l-.28-.17h0l0,0A.9.9,0,0,0,59,8.59h-.13a3.63,3.63,0,0,0-.67.06,2.58,2.58,0,0,0-.62.17,4.53,4.53,0,0,0-.54.27,3.33,3.33,0,0,0-.46.36,3.7,3.7,0,0,0-.37.42,4.2,4.2,0,0,0-.33.49c-.09.16-.17.33-.25.49a5.13,5.13,0,0,1,2.75,4.57Z"/><path class="cls-2" d="M12.49,27a5.15,5.15,0,0,1-.34,1.85H20.8A5.17,5.17,0,0,1,20.46,27,5,5,0,0,1,22,23.36a5.2,5.2,0,0,1,1.48-1,5.82,5.82,0,0,0-.38-.85,4.2,4.2,0,0,0-.33-.49,5,5,0,0,0-.37-.42,3.33,3.33,0,0,0-1-.63,3.05,3.05,0,0,0-.61-.17,3.71,3.71,0,0,0-.67-.06H20l-.21.08-.06,0-.29.16-.72.47a3.81,3.81,0,0,1-.94.41,3.5,3.5,0,0,1-1.14.19A3.9,3.9,0,0,1,16,21a3,3,0,0,1-.57-.14,4,4,0,0,1-.94-.41L13.78,20a3.16,3.16,0,0,0-.41-.23.74.74,0,0,0-.28-.06,3.57,3.57,0,0,0-1.29.23,3.45,3.45,0,0,0-.54.28,2.66,2.66,0,0,0-.46.35,3.7,3.7,0,0,0-.37.42,4.2,4.2,0,0,0-.33.49,6.11,6.11,0,0,0-.42.95,5.41,5.41,0,0,1,1.29.93A5,5,0,0,1,12.49,27Z"/><path class="cls-2" d="M4.27,30.06a4.19,4.19,0,0,0,3,1.25,4.8,4.8,0,0,0,.85-.08A4.44,4.44,0,0,0,8.86,31h0l.17-.08.25-.11.23-.15.19-.12a6.66,6.66,0,0,0,.59-.49,4.18,4.18,0,0,0,1.25-3,4.14,4.14,0,0,0-1.25-3,4.66,4.66,0,0,0-.88-.67,4.11,4.11,0,0,0-2.14-.58,4.14,4.14,0,0,0-3,1.25h0a4.38,4.38,0,0,0-.49.59l-.12.19a2.77,2.77,0,0,0-.26.48l-.09.2a3.42,3.42,0,0,0-.21.71A4,4,0,0,0,3,27H3a4.2,4.2,0,0,0,.31,1.64A4.38,4.38,0,0,0,4.27,30.06Z"/><path class="cls-2" d="M60.18,22.33h0a5.28,5.28,0,0,0-.38-.84h0a4.2,4.2,0,0,0-.33-.49,5,5,0,0,0-.37-.42,3.33,3.33,0,0,0-1-.63,3.55,3.55,0,0,0-1.28-.23,1.26,1.26,0,0,0-.69.29l-.73.47a2.22,2.22,0,0,1-.41.22,4.41,4.41,0,0,1-.52.19,3.06,3.06,0,0,1-.58.14,3.27,3.27,0,0,1-1.14,0,2.89,2.89,0,0,1-.58-.14,3.72,3.72,0,0,1-.93-.41L50.5,20a1.28,1.28,0,0,0-.69-.29,3.51,3.51,0,0,0-1.28.23,3.21,3.21,0,0,0-1,.63,4.31,4.31,0,0,0-.7.91,6.11,6.11,0,0,0-.42.95,5.21,5.21,0,0,1,1.29.93A5,5,0,0,1,49.21,27a5.15,5.15,0,0,1-.34,1.85h8.66A5.17,5.17,0,0,1,57.18,27a5.21,5.21,0,0,1,3-4.7Z"/><path class="cls-2" d="M74.48,20c-.21.14-.45.3-.73.47a3.72,3.72,0,0,1-.93.41,3.58,3.58,0,0,1-2.3,0,4.41,4.41,0,0,1-.52-.19,2.22,2.22,0,0,1-.41-.22L68.86,20a1.26,1.26,0,0,0-.69-.29,3.55,3.55,0,0,0-1.28.23,3.33,3.33,0,0,0-1,.63,4.31,4.31,0,0,0-.7.91,6.11,6.11,0,0,0-.42.95,5.21,5.21,0,0,1,1.29.93A5,5,0,0,1,67.57,27a5.15,5.15,0,0,1-.34,1.85h8.66A5.17,5.17,0,0,1,75.55,27a5.19,5.19,0,0,1,3-4.7,5.82,5.82,0,0,0-.38-.85,4.31,4.31,0,0,0-.7-.91,3.21,3.21,0,0,0-1-.63,3.51,3.51,0,0,0-1.28-.23A1.28,1.28,0,0,0,74.48,20Z"/><path class="cls-2" d="M14.63,35.29a8.91,8.91,0,0,0-.27-1.13c-.06-.18-.13-.36-.2-.53a5.12,5.12,0,0,0-.27-.52,4,4,0,0,0-.69-.91,3.17,3.17,0,0,0-.46-.36,2.56,2.56,0,0,0-.55-.27,3.35,3.35,0,0,0-1.28-.24h0l-.19,0-.05,0-.23.11-.23.14-.72.46a4.2,4.2,0,0,1-.94.42,3.86,3.86,0,0,1-1.72.14,4,4,0,0,1-.57-.14l-.53-.2a3.14,3.14,0,0,1-.41-.22l-.72-.46a1.31,1.31,0,0,0-.7-.3,3.35,3.35,0,0,0-1.28.24,2.73,2.73,0,0,0-.54.27,2.71,2.71,0,0,0-.46.36,3.76,3.76,0,0,0-.38.41c-.11.16-.22.32-.32.5a5.4,5.4,0,0,0-.46,1,7.47,7.47,0,0,0-.28,1.13A9.78,9.78,0,0,0,0,36.41c0,.34,0,.69,0,1.05H0a3.7,3.7,0,0,0,.05.59l0,.17a3.64,3.64,0,0,0,.11.39l.06.16a4.16,4.16,0,0,0,.24.47,2.74,2.74,0,0,0,.39.45,3.12,3.12,0,0,0,2.25.82h8.55a3.87,3.87,0,0,0,1.26-.2,2.84,2.84,0,0,0,1.87-2.85q0-.54,0-1.05A9.91,9.91,0,0,0,14.63,35.29Z"/><path class="cls-2" d="M33,35.23a8.89,8.89,0,0,0-.28-1.13,3.82,3.82,0,0,0-.2-.53c-.08-.17-.16-.35-.26-.52a4.07,4.07,0,0,0-.7-.91,3.33,3.33,0,0,0-.46-.36,4.53,4.53,0,0,0-.54-.27,3.57,3.57,0,0,0-1.29-.23h0a.57.57,0,0,0-.18,0l-.05,0a1.12,1.12,0,0,0-.24.1l-.22.14c-.21.14-.45.3-.73.47a3.72,3.72,0,0,1-.93.41,3.85,3.85,0,0,1-1.15.19,3.66,3.66,0,0,1-.57,0,4,4,0,0,1-.57-.14,4.55,4.55,0,0,1-.53-.2,2.61,2.61,0,0,1-.41-.21l-.73-.47a1.26,1.26,0,0,0-.69-.29,3.55,3.55,0,0,0-1.28.23,4,4,0,0,0-.55.27,3.33,3.33,0,0,0-.46.36,5,5,0,0,0-.37.42,4.2,4.2,0,0,0-.33.49,6.44,6.44,0,0,0-.46,1.05,11,11,0,0,0-.28,1.13,10.06,10.06,0,0,0-.14,1.12c0,.34,0,.7,0,1h0a5.65,5.65,0,0,0,0,.59c0,.06,0,.11,0,.16a2.62,2.62,0,0,0,.11.4l.05.15a2.34,2.34,0,0,0,.25.47,2.74,2.74,0,0,0,.38.45,3.13,3.13,0,0,0,2.26.83H30a3.62,3.62,0,0,0,1.26-.21,2.76,2.76,0,0,0,1-.62,2.94,2.94,0,0,0,.88-2.23c0-.35,0-.71,0-1A10.06,10.06,0,0,0,33,35.23Z"/><path class="cls-2" d="M51.35,35.23a8.91,8.91,0,0,0-.27-1.13c-.06-.18-.13-.35-.21-.53a4.2,4.2,0,0,0-.26-.52,3.79,3.79,0,0,0-.7-.91,2.82,2.82,0,0,0-.46-.36,3.89,3.89,0,0,0-.54-.27,3.55,3.55,0,0,0-1.28-.23h0l-.19,0,0,0a1.07,1.07,0,0,0-.23.1l-.23.14-.72.47a4,4,0,0,1-.94.41,3.8,3.8,0,0,1-1.15.19,3.66,3.66,0,0,1-.57,0,4,4,0,0,1-.57-.14,4.55,4.55,0,0,1-.53-.2A3.13,3.13,0,0,1,42,32l-.72-.47a1.31,1.31,0,0,0-.7-.29,3.55,3.55,0,0,0-1.28.23,3.89,3.89,0,0,0-.54.27,2.82,2.82,0,0,0-.46.36,3.79,3.79,0,0,0-.38.42c-.11.15-.22.32-.32.49a5.73,5.73,0,0,0-.47,1.05,8.91,8.91,0,0,0-.27,1.13c-.07.4-.12.78-.15,1.12s0,.7,0,1h0a3.81,3.81,0,0,0,.05.59l0,.16c0,.14.07.27.11.4a.94.94,0,0,0,.06.15,1.89,1.89,0,0,0,.24.47,2.74,2.74,0,0,0,.38.45,3.16,3.16,0,0,0,2.26.83H48.4a3.62,3.62,0,0,0,1.26-.21,2.8,2.8,0,0,0,1-.62,2.94,2.94,0,0,0,.87-2.23c0-.35,0-.71,0-1S51.42,35.63,51.35,35.23Z"/><path class="cls-2" d="M69.75,35.23a8.91,8.91,0,0,0-.27-1.13c-.06-.18-.13-.35-.21-.53a4.2,4.2,0,0,0-.26-.52,3.79,3.79,0,0,0-.7-.91,3.23,3.23,0,0,0-.45-.36,4,4,0,0,0-.55-.27A3.55,3.55,0,0,0,66,31.28h0l-.19,0,0,0a1.07,1.07,0,0,0-.23.1l-.23.14-.72.47a3.79,3.79,0,0,1-2.66.55,4,4,0,0,1-.57-.14,4.55,4.55,0,0,1-.53-.2,3.13,3.13,0,0,1-.41-.21l-.72-.47a1.31,1.31,0,0,0-.7-.29,3.55,3.55,0,0,0-1.28.23,3.89,3.89,0,0,0-.54.27,2.82,2.82,0,0,0-.46.36,3.79,3.79,0,0,0-.38.42c-.11.15-.22.32-.32.49a5.73,5.73,0,0,0-.47,1.05,8.91,8.91,0,0,0-.27,1.13c-.07.4-.12.78-.15,1.12s0,.7,0,1h0a3.81,3.81,0,0,0,.05.59l0,.16c0,.14.07.27.11.4l.06.15a2.31,2.31,0,0,0,.24.47,2.74,2.74,0,0,0,.38.45,3.16,3.16,0,0,0,2.26.83H66.8a3.62,3.62,0,0,0,1.26-.21,2.8,2.8,0,0,0,1-.62,2.94,2.94,0,0,0,.87-2.23c0-.35,0-.71,0-1S69.82,35.63,69.75,35.23Z"/><path class="cls-2" d="M88.22,36.41a9.78,9.78,0,0,0-.14-1.12,8.89,8.89,0,0,0-.28-1.13,3.39,3.39,0,0,0-.2-.53,5,5,0,0,0-.26-.52,4.07,4.07,0,0,0-.7-.91,2.94,2.94,0,0,0-1-.63,3.4,3.4,0,0,0-1.29-.24h0a.68.68,0,0,0-.29.07,2.69,2.69,0,0,0-.4.23l-.73.46a4.1,4.1,0,0,1-.93.42,3.77,3.77,0,0,1-.58.14,4.08,4.08,0,0,1-1.14,0,4.43,4.43,0,0,1-.58-.14c-.19-.07-.37-.13-.52-.2a2.22,2.22,0,0,1-.41-.22L78,31.63a1.29,1.29,0,0,0-.69-.3,3.35,3.35,0,0,0-1.28.24,3,3,0,0,0-1,.63,4.07,4.07,0,0,0-.7.91,5.4,5.4,0,0,0-.46,1,11,11,0,0,0-.28,1.13,9.78,9.78,0,0,0-.14,1.12c0,.34,0,.69,0,1.05h0a3.7,3.7,0,0,0,0,.59c0,.06,0,.11,0,.17a2.22,2.22,0,0,0,.11.39.75.75,0,0,0,0,.16,3,3,0,0,0,.25.47,2.67,2.67,0,0,0,.38.45,3.13,3.13,0,0,0,2.26.82h8.55a3.87,3.87,0,0,0,1.26-.2,2.91,2.91,0,0,0,1-.62,2.27,2.27,0,0,0,.38-.45,3,3,0,0,0,.25-.47l.06-.15c0-.13.08-.26.11-.4l0-.17a3.7,3.7,0,0,0,.05-.59C88.26,37.1,88.25,36.75,88.22,36.41Z"/><path class="cls-2" d="M30.47,15.41A4.28,4.28,0,0,0,37.11,19a4.81,4.81,0,0,0,.66-.55h0a4.27,4.27,0,0,0,0-6,4.28,4.28,0,0,0-7.3,3Z"/><path class="cls-2" d="M41.73,22.33h0a5.33,5.33,0,0,0-.39-.84h0c-.1-.17-.21-.34-.32-.49a3.79,3.79,0,0,0-.38-.42,3.16,3.16,0,0,0-1-.63,3.55,3.55,0,0,0-1.28-.23,1.31,1.31,0,0,0-.7.29l-.72.47a2.6,2.6,0,0,1-.41.22,4.61,4.61,0,0,1-.53.19,3,3,0,0,1-.57.14,3.66,3.66,0,0,1-.57.05,3.79,3.79,0,0,1-.58-.05,3,3,0,0,1-.57-.14,4,4,0,0,1-.94-.41L32.05,20a1.31,1.31,0,0,0-.7-.29,3.55,3.55,0,0,0-1.28.23,3.16,3.16,0,0,0-1,.63,4,4,0,0,0-.7.91,6.18,6.18,0,0,0-.43.95,5.46,5.46,0,0,1,1.3.93A5,5,0,0,1,30.76,27a5.15,5.15,0,0,1-.34,1.85h8.65A5.17,5.17,0,0,1,38.73,27a5,5,0,0,1,1.52-3.67A5.2,5.2,0,0,1,41.73,22.33Z"/></g></g></svg>