<svg xmlns="http://www.w3.org/2000/svg" width="120.155" height="49.972" viewBox="0 0 120.155 49.972">
  <g id="Groupe_178" data-name="Groupe 178" transform="translate(-756.699 -1729.72)">
    <path id="Tracé_247" data-name="Tracé 247" d="M118.151,21.982h-6.732L101.948,1.129h0a1.3,1.3,0,0,0-.188-.235h0a1.347,1.347,0,0,0-.11-.157.939.939,0,0,0-.125-.125h0a1.472,1.472,0,0,0-.438-.329h0l-.282-.2H19.334l-.25.11h0a1.566,1.566,0,0,0-.454.329h0l-.11.125L18.4.8h0a1.3,1.3,0,0,0-.11.2h0L8.72,21.982H2A2,2,0,1,0,2,25.99H18.019V38h-2a2.02,2.02,0,0,0-1.926,2v8.016a2.02,2.02,0,0,0,1.926,2.035h8.016a2,2,0,0,0,2-2V40a2,2,0,0,0-2-2h-2V25.99h76.1V38h-2a2,2,0,0,0-2,2v8.016a2,2,0,0,0,2,2.035h8a2,2,0,0,0,2-2V40a2,2,0,0,0-2-2h-2V25.99h16.031a2,2,0,0,0,0-4.008ZM22.027,46.013H18.019V42.005h4.008Zm80.093,0H98.128V42.005h3.992v4.008ZM93.228,21.982,100.194,6.8l6.888,15.186ZM40,6.8l6.967,15.186H33.142ZM30,19.148l-6.9-15.186H36.947ZM43.115,3.963H56.923L50.1,19.148ZM60.023,6.8l6.9,15.186h-13.7Zm3.131-2.834H76.962l-6.9,15.186ZM80.062,6.8l6.9,15.186H73.2Zm3.131-2.834H97.063l-6.9,15.186ZM20.023,6.8l6.9,15.186H13.119Z" transform="translate(756.699 1729.64)" fill="#2a2e2b"/>
  </g>
</svg>
