<svg xmlns="http://www.w3.org/2000/svg" width="70.936" height="64.814" viewBox="0 0 70.936 64.814">
  <g id="Groupe_179" data-name="Groupe 179" transform="translate(0)">
    <path id="Tracé_138" data-name="Tracé 138" d="M18.557,31.735a10.959,10.959,0,0,1-2.035-11.084,1.177,1.177,0,1,0-2.145-.971,13.276,13.276,0,0,0,2.348,13.526,1.158,1.158,0,0,0,1.644.188,1.174,1.174,0,0,0,.188-1.659Z" transform="translate(7.619 10.739)" fill="#2a2e2b"/>
    <path id="Tracé_139" data-name="Tracé 139" d="M25.156,32.222a7.061,7.061,0,1,0-5.008-2.068A7.076,7.076,0,0,0,25.156,32.222Zm0-11.788a4.7,4.7,0,1,1-4.7,4.7A4.7,4.7,0,0,1,25.156,20.434Z" transform="translate(10.225 10.22)" fill="#2a2e2b"/>
    <path id="Tracé_140" data-name="Tracé 140" d="M31.178,31.035a1.174,1.174,0,0,0,1.566-.564A13.323,13.323,0,0,0,30.411,16.93a1.19,1.19,0,0,0-1.659-.188,1.174,1.174,0,0,0-.188,1.659A10.959,10.959,0,0,1,30.6,29.485a1.174,1.174,0,0,0,.579,1.55Z" transform="translate(16.007 9.325)" fill="#2a2e2b"/>
    <path id="Tracé_141" data-name="Tracé 141" d="M70.246,42.6a1.049,1.049,0,0,0-.094-.188,1.346,1.346,0,0,0-.11-.157l-.078-.11h0a1.926,1.926,0,0,0-.407-.188.892.892,0,0,0-.282,0,1.988,1.988,0,0,0-.407,0h-.141a6.716,6.716,0,0,1-4.556.438l.141-.579c6.043-2.035,6.935-8.986,6.544-12.524a1.174,1.174,0,0,0-.877-1,1.19,1.19,0,0,0-1.268.454,6.45,6.45,0,0,1-4.023,2.129,3.726,3.726,0,0,0-.094-.579c4.806-4.2,2.99-10.959,1.284-14.09a1.19,1.19,0,0,0-2.192.329,6.622,6.622,0,0,1-2.9,3.522c-.11-.188-.219-.344-.313-.517,2.818-5.714-1.456-11.272-4.211-13.479A1.174,1.174,0,0,0,54.371,7.2a6.654,6.654,0,0,1-1.331,4.352l-.47-.329C52.821,4.7,46.293,1.347,43.459.517h-.25a1.112,1.112,0,0,0-.861.172h-.125l-.094.125h0a1.1,1.1,0,0,0-.188.83s0,.094,0,.157a1.833,1.833,0,0,0,.078.172v.11a6.732,6.732,0,0,1,.438,4.556L41.878,6.5c-2.067-5.9-9-6.81-12.524-6.419a1.174,1.174,0,0,0-.532,2.145,6.591,6.591,0,0,1,2.113,4.039l-.579.094C26.16,1.55,19.4,3.366,16.266,5.072a1.221,1.221,0,0,0-.611,1.19,1.205,1.205,0,0,0,.924.986,6.638,6.638,0,0,1,3.522,2.9l-.517.313C13.871,7.64,8.313,11.914,6.106,14.669a1.19,1.19,0,0,0,1.143,1.894A6.481,6.481,0,0,1,11.6,17.894l-.329.47C3.679,17.832.814,26.3.5,27.319h0v.125a1.143,1.143,0,0,0,0,.564h0a.877.877,0,0,0,.141.266h0l.11.172a1.174,1.174,0,0,0,.814.313H1.91l.188-.078h0a6.732,6.732,0,0,1,4.556-.438l-.141.579C.6,30.935-.313,37.886.078,41.393a1.174,1.174,0,0,0,.877,1,1.19,1.19,0,0,0,1.268-.454A6.591,6.591,0,0,1,6.262,39.8l.094.579C1.55,44.587,3.382,51.334,5.088,54.465a1.205,1.205,0,0,0,1.221.595,1.19,1.19,0,0,0,.971-.939,6.622,6.622,0,0,1,2.881-3.507c.11.172.219.344.313.517-2.8,5.714,1.456,11.256,4.2,13.464l.219.125a.767.767,0,0,0,.266.094h.579a.657.657,0,0,0,.219-.094h0a.282.282,0,0,0,.11-.078l.141-.094h0a1.988,1.988,0,0,0,.2-.3v-.188a1.1,1.1,0,0,0,0-.219v-.282a6.434,6.434,0,0,1,1.346-4.368s1.675-1.91.5-2.583a1.159,1.159,0,0,0-1.566.157,11.35,11.35,0,0,0-2.239,4.29c-1.722-2.02-3.851-5.6-1.566-9.393a1.158,1.158,0,0,0,0-1.268c-.391-.579-.767-1.205-1.205-1.973a1.158,1.158,0,0,0-1.566-.47,11.444,11.444,0,0,0-3.8,3.131C5.5,48.563,4.9,44.43,8.423,41.784a1.174,1.174,0,0,0,.454-1.19,22.779,22.779,0,0,1-.36-2.286,1.174,1.174,0,0,0-1.284-1.033,11.429,11.429,0,0,0-4.7,1.456c.235-2.661,1.284-6.7,5.511-7.828a1.19,1.19,0,0,0,.861-.924A22.215,22.215,0,0,1,9.393,27.8a1.112,1.112,0,0,0-.094-.892,1.143,1.143,0,0,0-.689-.579,11.6,11.6,0,0,0-4.916-.454c1.221-2.364,3.742-5.714,8.078-5.1a1.158,1.158,0,0,0,1.1-.423c.454-.673.908-1.284,1.362-1.863a1.19,1.19,0,0,0-.141-1.738,11.742,11.742,0,0,0-4.384-2.3c2.035-1.706,5.636-3.82,9.393-1.566a1.158,1.158,0,0,0,1.268,0c.579-.391,1.205-.767,1.973-1.205a1.158,1.158,0,0,0,.47-1.566,11.444,11.444,0,0,0-3.131-3.8c2.521-.83,6.654-1.409,9.3,2.113a1.174,1.174,0,0,0,1.19.454,22.78,22.78,0,0,1,2.286-.36,1.174,1.174,0,0,0,1.033-1.284,11.35,11.35,0,0,0-1.456-4.7c2.661.235,6.7,1.284,7.828,5.511a1.19,1.19,0,0,0,.924.861,20.947,20.947,0,0,1,2.145.485,1.205,1.205,0,0,0,1.487-.783,11.4,11.4,0,0,0,.454-4.916c2.364,1.205,5.714,3.726,5.1,8.078a1.159,1.159,0,0,0,.5,1.143c.689.454,1.3.908,1.863,1.362A1.174,1.174,0,0,0,54,14.09,11.35,11.35,0,0,0,56.36,9.675c1.722,2.035,3.851,5.62,1.566,9.393a1.158,1.158,0,0,0,0,1.284c.391.564.767,1.205,1.205,1.973a1.174,1.174,0,0,0,1.566.47,11.256,11.256,0,0,0,3.8-3.131c.8,2.536,1.362,6.685-2.113,9.3a1.174,1.174,0,0,0-.454,1.19,22.09,22.09,0,0,1,.36,2.286,1.19,1.19,0,0,0,1.3,1.033,11.585,11.585,0,0,0,4.7-1.456c-.235,2.646-1.284,6.7-5.511,7.828a1.19,1.19,0,0,0-.861.924,20.949,20.949,0,0,1-.548,2.223,1.205,1.205,0,0,0,.783,1.487,11.648,11.648,0,0,0,4.916.454c-1.221,2.364-3.726,5.714-8.078,5.088a1.174,1.174,0,0,0-1.143.517c-.454.673-.892,1.284-1.362,1.863a1.174,1.174,0,0,0,.172,1.659,11.35,11.35,0,0,0,4.4,2.3c-2.02,1.722-5.6,3.851-9.393,1.566a1.174,1.174,0,0,0-1.252,0,1.127,1.127,0,0,0-.485,1.19,2.9,2.9,0,0,0,1.205,1.159c5.7,2.818,11.256-1.44,13.464-4.18a1,1,0,0,0,.157-.282,1.376,1.376,0,0,0,0-.235V55.4a1.174,1.174,0,0,0-.141-.611h0a.282.282,0,0,0-.078-.11,1.349,1.349,0,0,0-.11-.157L64.3,54.45a.861.861,0,0,0-.219-.141,1.91,1.91,0,0,0-.407-.094H63.4a6.56,6.56,0,0,1-4.368-1.331l.329-.47c7.655.548,10.5-7.922,10.818-8.955h0a.6.6,0,0,0,0-.157.892.892,0,0,0,0-.407A.564.564,0,0,0,70.246,42.6Z" transform="translate(0 0)" fill="#2a2e2b"/>
    <path id="Tracé_144" data-name="Tracé 144" d="M19.077,43.838a17.691,17.691,0,1,1,21.542,0c.157.157.329.3.47.454.391.438.751.877,1.1,1.315a20.039,20.039,0,1,0-24.72,0,13.918,13.918,0,0,1,1.613-1.769Z" transform="translate(5.533 5.54)" fill="#2a2e2b"/>
  </g>
</svg>
