<svg xmlns="http://www.w3.org/2000/svg" width="81.94" height="56.002" viewBox="0 0 81.94 56.002">
  <g id="Groupe_177" data-name="Groupe 177" transform="translate(-522.162 -1729.72)">
    <path id="Tracé_235" data-name="Tracé 235" d="M27.591,31.07a1.205,1.205,0,0,0-1.221,1.205A1.221,1.221,0,0,0,27.591,33.5h3.241a1.221,1.221,0,0,0,1.221-1.221,1.205,1.205,0,0,0-1.221-1.205Z" transform="translate(528.215 1747.291)" fill="#2a2e2b"/>
    <path id="Tracé_236" data-name="Tracé 236" d="M17.892,31.07H14.651a1.205,1.205,0,0,0-1.221,1.205A1.221,1.221,0,0,0,14.651,33.5h3.241A1.205,1.205,0,0,0,19.1,32.275a1.19,1.19,0,0,0-1.205-1.205Z" transform="translate(520.896 1747.291)" fill="#2a2e2b"/>
    <path id="Tracé_237" data-name="Tracé 237" d="M54.506,31.07A1.19,1.19,0,0,0,53.3,32.276,1.205,1.205,0,0,0,54.506,33.5h3.241a1.221,1.221,0,0,0,1.221-1.221,1.205,1.205,0,0,0-1.221-1.205Z" transform="translate(540.444 1747.291)" fill="#2a2e2b"/>
    <path id="Tracé_238" data-name="Tracé 238" d="M44.812,31.07H41.571a1.205,1.205,0,0,0-1.221,1.205A1.221,1.221,0,0,0,41.571,33.5h3.241a1.221,1.221,0,0,0,1.221-1.221,1.205,1.205,0,0,0-1.221-1.205Z" transform="translate(534.287 1747.291)" fill="#2a2e2b"/>
    <path id="Tracé_239" data-name="Tracé 239" d="M21.121,22.112h3.241a1.221,1.221,0,0,0,0-2.442H21.121a1.221,1.221,0,1,0,0,2.442Z" transform="translate(524.556 1740.844)" fill="#2a2e2b"/>
    <path id="Tracé_240" data-name="Tracé 240" d="M46.6,29.221H37.691V12.611A1.221,1.221,0,0,0,36.47,11.39H17.01A1.205,1.205,0,0,0,15.8,12.611v16.61H6.881A1.221,1.221,0,0,0,5.66,30.443v17.91a1.205,1.205,0,0,0,1.221,1.205H46.6a1.205,1.205,0,0,0,1.221-1.205V30.443A1.221,1.221,0,0,0,46.6,29.221ZM34.372,31.648h4.055v5.746H34.372Zm-5.6-17.831V19.5H24.713V13.817Zm-10.536,0h4.055V20.7a1.221,1.221,0,0,0,1.206,1.221h6.5A1.205,1.205,0,0,0,31.194,20.7V13.817h4.055v15.4H18.231Zm.485,17.831v5.746H14.584V31.648Zm-10.536,0h3.976v6.9a1.205,1.205,0,0,0,1.205,1.205h6.481a1.221,1.221,0,0,0,1.221-1.206v-6.9h4.462v15.4H8.1Zm37.15,15.4H27.953v-15.4h4.055v6.9a1.221,1.221,0,0,0,1.221,1.205H39.71a1.221,1.221,0,0,0,1.221-1.206v-6.9h4.4Z" transform="translate(516.502 1736.162)" fill="#2a2e2b"/>
    <path id="Tracé_241" data-name="Tracé 241" d="M48.041,22.112h3.241a1.221,1.221,0,1,0,0-2.442H48.041a1.221,1.221,0,0,0,0,2.442Z" transform="translate(537.779 1740.844)" fill="#2a2e2b"/>
    <path id="Tracé_242" data-name="Tracé 242" d="M71.969,29.221H63.045V12.611A1.205,1.205,0,0,0,61.84,11.39H42.38a1.205,1.205,0,0,0-1.205,1.221v16.61H32.251a1.221,1.221,0,0,0-1.221,1.221v17.91a1.205,1.205,0,0,0,1.221,1.205H71.969a1.205,1.205,0,0,0,1.284-1.205V30.443a1.221,1.221,0,0,0-1.284-1.221ZM59.8,31.648h4.055v5.746H59.8ZM54.137,13.817V19.5H50.083V13.817Zm-10.536,0h4.055V20.7a1.221,1.221,0,0,0,1.206,1.221h6.5A1.205,1.205,0,0,0,56.564,20.7V13.817h4.055v15.4H43.6Zm.407,17.831v5.746H39.954V31.648Zm-10.536,0h4.055v6.9a1.205,1.205,0,0,0,1.205,1.205h6.481a1.221,1.221,0,0,0,1.221-1.206v-6.9H50.9v15.4H33.472Zm37.275,15.4H53.323v-15.4h4.055v6.9A1.221,1.221,0,0,0,58.6,39.758H65.08A1.221,1.221,0,0,0,66.3,38.552v-6.9h4.446Z" transform="translate(530.85 1736.162)" fill="#2a2e2b"/>
    <path id="Tracé_243" data-name="Tracé 243" d="M33.541,22.112H36.8a1.221,1.221,0,1,0,0-2.442H33.541a1.221,1.221,0,0,0,0,2.442Z" transform="translate(531.579 1740.844)" fill="#2a2e2b"/>
    <path id="Tracé_244" data-name="Tracé 244" d="M46.446,29.221V12.611a1.221,1.221,0,0,0-1.221-1.221H25.781a1.221,1.221,0,0,0-1.221,1.221v16.61Zm-8.908-15.4V19.5H33.484V13.817ZM27,13.817h4.039V20.7a1.221,1.221,0,0,0,1.221,1.221h6.481A1.221,1.221,0,0,0,39.965,20.7V13.817h4.07v15.4H27Z" transform="translate(527.19 1736.162)" fill="#2a2e2b"/>
    <path id="Tracé_245" data-name="Tracé 245" d="M38.981,10.722h3.241a1.221,1.221,0,0,0,0-2.442H38.981a1.221,1.221,0,1,0,0,2.442Z" transform="translate(534.656 1734.403)" fill="#2a2e2b"/>
    <path id="Tracé_246" data-name="Tracé 246" d="M51.918,17.832V1.221A1.221,1.221,0,0,0,50.665,0H31.205A1.221,1.221,0,0,0,30,1.221v16.61Zm-8.924-15.4V8.11H38.908V2.427Zm-10.536,0h4.055V9.393a1.221,1.221,0,0,0,1.221,1.221h6.481A1.221,1.221,0,0,0,45.4,9.393V2.427h4.039v15.4H32.427Z" transform="translate(530.268 1729.72)" fill="#2a2e2b"/>
  </g>
</svg>
