<svg xmlns="http://www.w3.org/2000/svg" width="100.936" height="50.805" viewBox="0 0 100.936 50.805">
  <g id="Groupe_175" data-name="Groupe 175" transform="translate(-821.609 -1256.23)">
    <path id="Tracé_225" data-name="Tracé 225" d="M17.975,45.825l4.3-4.986a1.433,1.433,0,0,0-2.163-1.877L18.319,41.04V15.6l1.791,2.077A1.433,1.433,0,1,0,22.273,15.8l-4.3-4.986a1.433,1.433,0,0,0-2.178,0L11.571,15.8a1.433,1.433,0,0,0,.086,1.934l.086.086a1.433,1.433,0,0,0,2.02-.2l1.691-2.02V26.083h0v4.37h0V40.94l-1.691-1.963a1.433,1.433,0,0,0-2.02-.172l-.086.086a1.433,1.433,0,0,0-.086,1.934L15.8,45.811a1.433,1.433,0,0,0,2.178,0Z" transform="translate(810.372 1260.723)" fill="#2a2e2b"/>
    <path id="Tracé_226" data-name="Tracé 226" d="M22.047,6.743l4.986,4.3A1.437,1.437,0,0,0,28.91,8.863L26.832,7.173h75.587l-2.077,1.7a1.437,1.437,0,1,0,1.877,2.178l4.986-4.3a1.433,1.433,0,0,0,.5-1.089,1.519,1.519,0,0,0-.516-1.089L102.2.353a1.433,1.433,0,0,0-1.934,0l-.086.086a1.433,1.433,0,0,0,.172,2.02l2.063,1.848H26.889L28.9,2.6A1.433,1.433,0,0,0,29.067.511L28.981.425a1.433,1.433,0,0,0-1.934,0l-4.986,4.14a1.433,1.433,0,0,0,0,2.178Z" transform="translate(814.839 1256.252)" fill="#2a2e2b"/>
    <path id="Tracé_227" data-name="Tracé 227" d="M106.717,17.682a.931.931,0,0,0,.931-.931V11.207a.931.931,0,0,0-.931-.917H101.23a.917.917,0,0,0-.917.917v1.848H28.952V11.207a.931.931,0,0,0-.931-.917H22.477a.917.917,0,0,0-.917.917v5.544a.931.931,0,0,0,.917.931h1.848V38.929H22.477a.931.931,0,0,0-.917.931V45.4a.917.917,0,0,0,.917.917h5.544a.931.931,0,0,0,.931-.917V43.556h71.36V45.4a.917.917,0,0,0,.917.917h5.487a.931.931,0,0,0,.931-.917V39.86a.931.931,0,0,0-.931-.931h-1.791V17.682Zm-3.639,21.246H101.23a.917.917,0,0,0-.917.931v1.848H28.952V39.86a.931.931,0,0,0-.931-.931H26.173V17.682h1.848a.931.931,0,0,0,.931-.931V14.9h71.36v1.848a.917.917,0,0,0,.917.931h1.848Z" transform="translate(814.839 1260.714)" fill="#2a2e2b"/>
  </g>
</svg>
