<svg xmlns="http://www.w3.org/2000/svg" width="184.774" height="62.591" viewBox="0 0 184.774 62.591">
  <g id="Groupe_2" data-name="Groupe 2" transform="translate(-327 -295)">
    <g id="Groupe_1" data-name="Groupe 1" transform="translate(327 295)">
      <path id="Tracé_1" data-name="Tracé 1" d="M128.367,263.957H121.96l-.257,0a.8.8,0,0,1,0-1.6l3.62-.029c5.489-.472,4.538-6.161,4.706-8.294,0,0,.012,1.124.012-.637V226.345c0-4.471.784-8.53-4.707-9l-3.618-.03a.8.8,0,0,1,0-1.6l.261,0h27.26l.259,0a.8.8,0,0,1,.8.8.789.789,0,0,1-.812.777h-3.575a5.532,5.532,0,0,0-4.817,2.688c-.882,1.625-.744,6.37-.744,6.37v28.47c0,1.285,0,3.589.678,4.672a6.842,6.842,0,0,0,5.062,2.749s10.408,1.691,16.4-6.814c0,0,3.666-5.562,3.811-5.927l.186-.352c.219-.487.606-.772.928-.646s.418.649.217,1.169l-7.545,18.586s-.588,1.3-.978.324a5.863,5.863,0,0,0-5.654-4.552,17.84,17.84,0,0,0-3.387-.065H123.441" transform="translate(-120.904 -215.708)" fill="#fff"/>
      <path id="Tracé_2" data-name="Tracé 2" d="M407.173,298.067l.031,5.681v4.14c0,3.309-.7,3.77,2.82,4.106l.011.57H399.957l-.016-.57c3.367-.316,3.088-.005,3.2-4.052l-.027-4.154c0-2.522.055-2.964-2.619-3.013l.043-.478a11.178,11.178,0,0,0,6.48-2.245Z" transform="translate(-317.525 -273.73)" fill="#fff"/>
      <path id="Tracé_3" data-name="Tracé 3" d="M445.96,312.48l.016-.515c2.409.069,2.161-2.454,2.158-3.615v-6.492c0-1.356-.6-2.727-2.56-2.072-3.332,1.112-2.631,2.169-2.718,3.316v4.771c0,3.4-.153,3.527,2.057,4.1l.032.5-8.759.006-.012-.471c2.694-.285,2.75-.664,2.75-4.066v-3.724c0-2.9-.4-3.207-3.111-3.227v-.725a12.281,12.281,0,0,0,6.655-2.158h.421c-.023.992-.032.749-.032,2.547,1.059-.832,4.262-2.688,5.912-2.688,2.808,0,3.335,1.258,3.335,3.022v6.884c0,3.4-.4,3.716,2.914,4.062l-.017.544Z" transform="translate(-342.8 -273.671)" fill="#fff"/>
      <path id="Tracé_4" data-name="Tracé 4" d="M220.544,311.819c-2.78,0-3.831-2.983-3.831-7.046s1.051-7.079,3.831-7.079,3.832,3.013,3.832,7.079-1.051,7.046-3.832,7.046m.083-14.692a7.954,7.954,0,0,0-8.231,7.627c0,3.669,3.119,7.63,8.368,7.63a7.839,7.839,0,0,0,8.026-7.922c0-4.9-4.3-7.336-8.164-7.336" transform="translate(-185.373 -273.079)" fill="#fff"/>
      <path id="Tracé_5" data-name="Tracé 5" d="M634.092,340.558c0,.61.111.869-.878.974-6.023.64-8.471,2.43-8.471,4.9a3.62,3.62,0,0,0,3.836,4.051c1.744,0,3.38-1.12,5.01-2.271a.851.851,0,0,1,.27-.136c.114,0,.194,0,.544.643a4.016,4.016,0,0,0,3.287,1.764c1.709,0,3.36-.852,3.466-2.72.005-.1.019-.424-.213-.424-.193,0-.106.549-.534.853a2.477,2.477,0,0,1-1.225.426c-1.089,0-1.328-.95-1.328-2l.046-7.882c0-1.391-1.307-3.337-4.951-3.337-5.9,0-7.357,2.845-7.357,4,0,.441.267,1.812,1.491,1.812.039,0,4.266.213,2.4-2.995-.421-.725.1-2.228,2.351-2.228a2.038,2.038,0,0,1,2.261,2.332Zm-.048,3.989c.036,2.434-1.2,3.621-2.938,3.75-.852.061-1.784-.481-1.9-2.1-.065-.905-.164-1.951,2.223-3.154a7.187,7.187,0,0,1,2.072-.866c.2-.014.524-.04.547.3Z" transform="translate(-475.928 -300.051)" fill="#fff"/>
      <path id="Tracé_6" data-name="Tracé 6" d="M282.183,311.834c-2.41,0-3.32-2.855-3.32-6.748s.91-6.782,3.32-6.782,3.324,2.888,3.324,6.782-.913,6.748-3.324,6.748m2.864-14.177a5.069,5.069,0,0,0-5.828,1.85l-.442-.047v-2.03l-.523.007s-.67,1.636-4.92,2.126l-1.468-.055v.654s2.941.056,2.941,2.179V316.4s-.114,1.746-1.37,1.746c-.574,0-.649,0-1.622-.009l0,.6H282.38v-.6H280.2s-1.427-.116-1.422-1.937,0-5.774,0-5.774,2.729,4.5,8.231.738a10.856,10.856,0,0,0,2.615-4.9c.547-3.378-.871-7.3-4.576-8.607" transform="translate(-227.239 -273.229)" fill="#fff"/>
      <path id="Tracé_7" data-name="Tracé 7" d="M346.755,311.747c-2.411,0-3.321-2.854-3.321-6.746s.91-6.781,3.321-6.781,3.323,2.887,3.323,6.781-.914,6.746-3.323,6.746m2.862-14.176a5.07,5.07,0,0,0-5.828,1.853l-.442-.049v-2.031l-.524.007s-.67,1.636-4.919,2.126l-1.469-.052v.651s2.942.055,2.942,2.18v14.056s-.114,1.748-1.37,1.748c-.577,0-.65,0-1.624-.012l0,.607h10.571v-.6H344.77s-1.427-.116-1.422-1.937,0-5.774,0-5.774,2.729,4.5,8.231.739a10.866,10.866,0,0,0,2.615-4.9c.548-3.376-.87-7.3-4.576-8.606" transform="translate(-272.738 -273.169)" fill="#fff"/>
      <path id="Tracé_8" data-name="Tracé 8" d="M414.3,280.43a2.468,2.468,0,1,1-2.466-2.55,2.511,2.511,0,0,1,2.466,2.55" transform="translate(-324.166 -259.517)" fill="#fff"/>
      <path id="Tracé_9" data-name="Tracé 9" d="M475.74,257.8l-.254,0H448.222l-.257,0a.8.8,0,1,0,0,1.6l3.621.029c5.484.475,4.7,4.533,4.7,9.005v28.983c-.292,4.681-3.186,8.378-7.727,8.738-3.17.253-6.249-.053-8.715-2.018-1.513-1.178-2.954-2.5-2.954-4.465,0-3.38,3.529-2.45,3.529-7.136,0-2.514-1.441-4.541-3.985-4.541-3.982,0-6.21,3.143-6.21,6.913,0,4.715,2.556,7.338,6.379,10.166,3.816,2.75,8.633,2.882,13.327,2.882,7.879,0,16.717-4.827,16.717-13.687l-.052-1.7h0V268.436s-.138-4.744.745-6.37a5.524,5.524,0,0,1,4.815-2.688h3.577a.789.789,0,0,0,.81-.776.8.8,0,0,0-.8-.8" transform="translate(-338.863 -245.366)" fill="#fff"/>
      <path id="Tracé_10" data-name="Tracé 10" d="M576.671,336.944a2.109,2.109,0,0,1,2.765.14,7.919,7.919,0,0,1,1.658,2.9c0,.344-.485.483-2,1.173a35.272,35.272,0,0,1-4.006,1.385s-.3-4.407,1.587-5.6m8.57,7.808a7.525,7.525,0,0,1-3.316,3.18c-4.879,2.047-6.428-4.56-6.428-4.56l10.095-3.805a7.325,7.325,0,0,0-7.125-4.2,8.781,8.781,0,0,0-6.768,5.1,8.05,8.05,0,0,0,.1,6.726,7.686,7.686,0,0,0,6.463,3.358,7.384,7.384,0,0,0,7.407-5.661Z" transform="translate(-438.05 -300.011)" fill="#fff"/>
      <path id="Tracé_11" data-name="Tracé 11" d="M691.61,349.914l.018-.515c2.409.071,2.159-2.452,2.156-3.612v-6.494c0-1.355-.6-2.727-2.559-2.071-3.328,1.111-2.625,2.168-2.712,3.316v4.773c0,3.4-.153,3.526,2.055,4.1l.032.5-8.762.006-.01-.469c2.692-.285,2.749-.665,2.749-4.066v-3.726c0-2.9-.4-3.2-3.114-3.224V337.7a12.27,12.27,0,0,0,6.659-2.158h.418c-.021.992-.032.75-.032,2.546,1.06-.83,4.261-2.687,5.912-2.687,2.811,0,3.339,1.26,3.339,3.024v6.883c0,3.4-.4,3.715,2.913,4.061l-.017.542Z" transform="translate(-515.896 -300.051)" fill="#fff"/>
      <path id="Tracé_12" data-name="Tracé 12" d="M379.651,368.656A3.679,3.679,0,0,1,376,365.077c0-2.3.82-2.734,1.091-2.734.173,0,.224.077.473.334l3.919,4.636a.8.8,0,0,1,.149.286c0,.156.082,1.057-1.977,1.057m-.457-12.846a2.245,2.245,0,0,1,2.123,2.409,2.5,2.5,0,0,1-1.926,2.435c-.173,0-2-1.8-2-3.111a1.765,1.765,0,0,1,1.807-1.733m9.3,13.629c.343,0,.969.075.933-.15-.044-.251-1.162-.083-2.091-.223-.732-.117-1.489-1.033-2.052-1.642l-.855-.968a1.062,1.062,0,0,1-.224-.633c0-.375.185-.375.445-1.009a10,10,0,0,1,.783-1.491A2.683,2.683,0,0,1,387,362.054a5.993,5.993,0,0,1,1.083-.109l.036-.262h-6.191v.262s1.044.035,1.454.109.783.636.933,1.007a3.292,3.292,0,0,1,.04,1.344,1.569,1.569,0,0,1-.374.82.446.446,0,0,1-.409.223,3.127,3.127,0,0,1-.45-.41l-3.06-3.543a.656.656,0,0,1-.094-.188c0-.164.539-.322.755-.4a4.021,4.021,0,0,0,2.213-3c0-1.31-1.268-2.686-3.4-2.69-2.59-.006-4.445,1.453-4.445,3.229a4.524,4.524,0,0,0,1.243,2.737c.1.117.3.327.3.469s-.229.216-.32.259c-2.7,1.256-3.076,2.708-3.076,4.087a4.141,4.141,0,0,0,4.4,3.994c2.54,0,3.024-.531,4.466-1.771a.293.293,0,0,1,.2-.1.488.488,0,0,1,.269.191l.736.966" transform="translate(-298.707 -314.017)" fill="#fff"/>
    </g>
  </g>
</svg>
